<svg width="20" height="20" viewBox="0 0 20 20" fill="none" xmlns="http://www.w3.org/2000/svg">
<g clip-path="url(#clip0_229_985)">
<path d="M18.0498 0.811059C18.3424 0.811059 18.5904 0.912725 18.7938 1.11606C18.9971 1.31939 19.0988 1.56739 19.0988 1.86006V18.4971C19.0988 18.7897 18.9971 19.0377 18.7938 19.2411C18.5904 19.4444 18.3424 19.5461 18.0498 19.5461H13.3178V12.3251H15.7328L16.0748 9.47106H13.3178V7.64106C13.3178 7.20173 13.4154 6.86839 13.6108 6.64106C13.8061 6.41372 14.1638 6.29973 14.6838 6.29906H16.1718V3.76206C15.5211 3.69673 14.7974 3.66406 14.0008 3.66406C12.9114 3.66406 12.0331 3.98539 11.3658 4.62806C10.6984 5.27073 10.3651 6.17739 10.3658 7.34806V9.47006H7.95077V12.3241H10.3658V19.5451H1.41277C1.1201 19.5451 0.872103 19.4434 0.66877 19.2401C0.465436 19.0367 0.36377 18.7887 0.36377 18.4961V1.85906C0.36377 1.56639 0.465436 1.31839 0.66877 1.11506C0.872103 0.911725 1.1201 0.810059 1.41277 0.810059H18.0498V0.811059Z" fill="white"/>
</g>
<defs>
<clipPath id="clip0_229_985">
<rect width="20" height="20" fill="white"/>
</clipPath>
</defs>
</svg>
