<svg width="20" height="20" viewBox="0 0 20 20" fill="none" xmlns="http://www.w3.org/2000/svg">
<g clip-path="url(#clip0_229_991)">
<path d="M10 1.93359C12.6289 1.93359 12.9375 1.94531 13.9766 1.99219C14.9375 2.03516 15.457 2.19531 15.8047 2.33203C16.2656 2.51172 16.5938 2.72266 16.9375 3.06641C17.2812 3.41016 17.4961 3.73828 17.6719 4.19922C17.8047 4.54688 17.9688 5.06641 18.0117 6.02734C18.0586 7.06641 18.0703 7.375 18.0703 10.0039C18.0703 12.6328 18.0586 12.9414 18.0117 13.9805C17.9688 14.9414 17.8086 15.4609 17.6719 15.8086C17.4922 16.2695 17.2812 16.5977 16.9375 16.9414C16.5938 17.2852 16.2656 17.5 15.8047 17.6758C15.457 17.8086 14.9375 17.9727 13.9766 18.0156C12.9375 18.0625 12.6289 18.0742 10 18.0742C7.37109 18.0742 7.0625 18.0625 6.02344 18.0156C5.0625 17.9727 4.54297 17.8125 4.19531 17.6758C3.73438 17.4961 3.40625 17.2852 3.0625 16.9414C2.71875 16.5977 2.50391 16.2695 2.32812 15.8086C2.19531 15.4609 2.03125 14.9414 1.98828 13.9805C1.94141 12.9414 1.92969 12.6328 1.92969 10.0039C1.92969 7.375 1.94141 7.06641 1.98828 6.02734C2.03125 5.06641 2.19141 4.54688 2.32812 4.19922C2.50781 3.73828 2.71875 3.41016 3.0625 3.06641C3.40625 2.72266 3.73438 2.50781 4.19531 2.33203C4.54297 2.19922 5.0625 2.03516 6.02344 1.99219C7.0625 1.94141 7.37109 1.93359 10 1.93359ZM10 0.160156C7.32812 0.160156 6.99219 0.171875 5.94141 0.21875C4.89453 0.265625 4.17969 0.433594 3.55469 0.675781C2.90625 0.925781 2.35938 1.26563 1.8125 1.8125C1.26563 2.35938 0.929687 2.91016 0.675781 3.55469C0.433594 4.17969 0.265625 4.89453 0.21875 5.94531C0.171875 6.99219 0.160156 7.32812 0.160156 10C0.160156 12.6719 0.171875 13.0078 0.21875 14.0586C0.265625 15.1055 0.433594 15.8203 0.675781 16.4492C0.925781 17.0977 1.26563 17.6445 1.8125 18.1914C2.35938 18.7383 2.91016 19.0742 3.55469 19.3281C4.17969 19.5703 4.89453 19.7383 5.94531 19.7852C6.99609 19.832 7.32812 19.8438 10.0039 19.8438C12.6797 19.8438 13.0117 19.832 14.0625 19.7852C15.1094 19.7383 15.8242 19.5703 16.4531 19.3281C17.1016 19.0781 17.6484 18.7383 18.1953 18.1914C18.7422 17.6445 19.0781 17.0938 19.332 16.4492C19.5742 15.8242 19.7422 15.1094 19.7891 14.0586C19.8359 13.0078 19.8477 12.6758 19.8477 10C19.8477 7.32422 19.8359 6.99219 19.7891 5.94141C19.7422 4.89453 19.5742 4.17969 19.332 3.55078C19.082 2.90234 18.7422 2.35547 18.1953 1.80859C17.6484 1.26172 17.0977 0.925781 16.4531 0.671875C15.8281 0.429688 15.1133 0.261719 14.0625 0.214844C13.0078 0.171875 12.6719 0.160156 10 0.160156Z" fill="white"/>
<path d="M10 4.94531C7.21094 4.94531 4.94531 7.20703 4.94531 10C4.94531 12.793 7.21094 15.0547 10 15.0547C12.7891 15.0547 15.0547 12.7891 15.0547 10C15.0547 7.21094 12.7891 4.94531 10 4.94531ZM10 13.2812C8.1875 13.2812 6.71875 11.8125 6.71875 10C6.71875 8.1875 8.1875 6.71875 10 6.71875C11.8125 6.71875 13.2812 8.1875 13.2812 10C13.2812 11.8125 11.8125 13.2812 10 13.2812Z" fill="white"/>
<path d="M15.2539 5.92578C15.9054 5.92578 16.4336 5.39762 16.4336 4.74609C16.4336 4.09457 15.9054 3.56641 15.2539 3.56641C14.6024 3.56641 14.0742 4.09457 14.0742 4.74609C14.0742 5.39762 14.6024 5.92578 15.2539 5.92578Z" fill="white"/>
</g>
<defs>
<clipPath id="clip0_229_991">
<rect width="20" height="20" fill="white"/>
</clipPath>
</defs>
</svg>
