<svg width="19" height="20" viewBox="0 0 19 20" fill="none" xmlns="http://www.w3.org/2000/svg">
<g clip-path="url(#clip0_229_995)">
<path d="M18.2502 17.3999L16.6502 3.9999H13.7002C13.3502 1.9499 11.5002 0.399902 9.25021 0.399902C7.00021 0.399902 5.15021 1.9499 4.80021 3.9999H1.85021L0.250206 17.3999C0.150206 18.1499 0.450206 18.5999 0.700206 18.8999C0.950206 19.1499 1.40021 19.4999 2.25021 19.4999H16.2502C16.9002 19.4999 17.4502 19.2999 17.8002 18.8499C18.1502 18.4999 18.3002 17.9499 18.2502 17.3999ZM9.25021 2.3999C10.3502 2.3999 11.3002 3.0999 11.6002 3.9999H6.85021C7.20021 3.0499 8.15021 2.3999 9.25021 2.3999ZM2.25021 17.4999L3.65021 5.9999H4.75021V7.4999C4.75021 8.0499 5.20021 8.4999 5.75021 8.4999C6.30021 8.4999 6.75021 8.0499 6.75021 7.4999V5.9999H11.7502V7.4999C11.7502 8.0499 12.2002 8.4999 12.7502 8.4999C13.3002 8.4999 13.7502 8.0499 13.7502 7.4999V5.9999H14.8502L16.2502 17.4999H2.25021Z" fill="white"/>
</g>
<defs>
<clipPath id="clip0_229_995">
<rect width="18.5" height="20" fill="white"/>
</clipPath>
</defs>
</svg>
