<svg width="22" height="18" viewBox="0 0 22 18" fill="none" xmlns="http://www.w3.org/2000/svg">
<path d="M0.500001 14.9717C0.500001 15.7917 0.770668 16.489 1.312 17.0637C1.85333 17.6384 2.51233 17.9254 3.289 17.9247H18.235C19.0117 17.9247 19.6707 17.6377 20.212 17.0637C20.7533 16.4897 21.024 15.7924 21.024 14.9717V3.07768C21.024 2.25768 20.7507 1.55235 20.204 0.961684C19.6573 0.371017 19.001 0.0756836 18.235 0.0756836H3.289C2.52367 0.0756836 1.86733 0.371017 1.32 0.961684C0.772668 1.55235 0.499335 2.25768 0.500001 3.07768V14.9717ZM7.965 12.8227V5.22668C7.965 5.15002 7.987 5.09002 8.031 5.04668C8.06367 5.03602 8.091 5.03068 8.113 5.03068L8.195 5.04668L15.348 8.85268C15.392 8.89668 15.414 8.95135 15.414 9.01668C15.414 9.06068 15.392 9.10435 15.348 9.14768L8.195 12.9537C8.173 12.9757 8.151 12.9867 8.129 12.9867C8.085 12.9867 8.05233 12.9757 8.031 12.9537C7.987 12.9097 7.965 12.866 7.965 12.8227Z" fill="white"/>
</svg>
