<svg width="24" height="24" viewBox="0 0 24 24" fill="none" xmlns="http://www.w3.org/2000/svg">
<path d="M3 4H5L5.5 7M5.5 7L7 16H18L21 7H5.5Z" stroke="#414249" stroke-width="1.4" stroke-linecap="round" stroke-linejoin="round"/>
<path d="M9 21.7C9.93888 21.7 10.7 20.9389 10.7 20C10.7 19.0611 9.93888 18.3 9 18.3C8.06112 18.3 7.3 19.0611 7.3 20C7.3 20.9389 8.06112 21.7 9 21.7Z" stroke="#414249" stroke-width="1.4" stroke-linecap="round" stroke-linejoin="round"/>
<path d="M16 21.7C16.9389 21.7 17.7 20.9389 17.7 20C17.7 19.0611 16.9389 18.3 16 18.3C15.0611 18.3 14.3 19.0611 14.3 20C14.3 20.9389 15.0611 21.7 16 21.7Z" stroke="#414249" stroke-width="1.4" stroke-linecap="round" stroke-linejoin="round"/>
</svg>
