<svg width="32" height="32" viewBox="0 0 32 32" fill="none" xmlns="http://www.w3.org/2000/svg">
<path d="M18.2573 15.0221C19.2635 14.9186 20.4951 14.5563 21.3942 13.5239C21.8808 12.9672 22.6489 12.7721 23.3063 13.0368C23.8498 13.2564 24.2366 13.6978 24.3685 14.2481C24.4986 14.7885 24.3581 15.3614 23.994 15.7802C22.9801 16.9459 21.6793 17.7506 20.1269 18.1722C19.9064 18.2323 19.7243 18.3832 19.6254 18.5869C19.5269 18.7916 19.521 19.0189 19.6113 19.228C19.6131 19.2312 19.6145 19.2353 19.6159 19.2389L21.5908 24.2409C21.6743 24.4533 21.579 24.695 21.3721 24.7931C19.7049 25.5828 17.8484 25.9999 16.0013 25.9999C14.1525 25.9999 12.2928 25.5819 10.6243 24.7908C10.4182 24.6928 10.3225 24.4511 10.407 24.2387L12.3837 19.238C12.3846 19.2339 12.3868 19.2303 12.3882 19.2262C12.4772 19.0175 12.4727 18.7902 12.3742 18.5865C12.2757 18.3818 12.0931 18.2309 11.8726 18.1713C10.3207 17.7488 9.02033 16.9432 8.00601 15.7775C7.64139 15.3573 7.50133 14.7849 7.6319 14.2441C7.76473 13.6938 8.15148 13.2528 8.69411 13.0341C9.35286 12.7693 10.1209 12.9654 10.6067 13.5221C11.1064 14.0963 11.7095 14.4637 12.3199 14.6941C12.6484 14.8179 12.9913 14.8988 13.3383 14.9503L13.6998 15.0036C15.2102 15.2268 16.745 15.2331 18.2573 15.0221Z" fill="#414249"/>
<path d="M21.7547 8.46139L20.7594 6.46843C20.6365 6.2249 20.4115 6.05954 20.144 6.01345C19.8765 5.96646 19.6095 6.04824 19.4139 6.23575L18.5952 7.01648C18.4127 6.8597 18.2179 6.71918 18.0096 6.599C18.0096 6.5981 18.0087 6.59811 18.0087 6.59811C17.9952 6.58952 17.9816 6.58094 17.9672 6.57326C17.9654 6.57235 17.9635 6.57145 17.9622 6.57054C17.3676 6.23213 16.689 6.05322 16.0004 6.05322C15.057 6.05322 14.171 6.37536 13.4594 6.96995L12.6899 6.2362C12.493 6.0478 12.2264 5.96601 11.958 6.013C11.6928 6.05908 11.4628 6.22942 11.3426 6.47069L10.3473 8.4623C10.2253 8.70583 10.2289 8.99589 10.355 9.23671C10.481 9.47708 10.7178 9.64425 10.9857 9.6813L12.0253 9.83311C12.0217 9.89862 12.0204 9.96503 12.0204 10.0324C12.0204 10.0436 12.0204 10.0536 12.0213 10.0649C12.0271 10.1449 12.1704 11.9941 13.5841 13.1847C13.5841 13.1847 13.5877 13.1883 13.5954 13.1951C13.6243 13.219 13.6541 13.243 13.6839 13.2665C13.7111 13.2913 13.7368 13.3152 13.7617 13.3374C13.9821 13.5122 14.4014 13.7951 14.9676 13.9672C15.5256 14.1367 16.2272 14.199 17.0238 13.9415C17.4661 13.7991 17.9364 13.5588 18.4289 13.1847C19.2332 12.5643 19.7771 11.6508 19.9321 10.6495C19.9357 10.6351 19.9371 10.6197 19.9389 10.6044C19.966 10.4151 19.9805 10.2226 19.9805 10.0324C19.9805 9.9709 19.9786 9.90991 19.9755 9.84756L21.1172 9.6822C21.3856 9.64379 21.6215 9.47662 21.748 9.23671C21.874 8.99544 21.8767 8.70582 21.7547 8.46139Z" fill="#414249"/>
</svg>
