<svg width="24" height="24" viewBox="0 0 24 24" fill="none" xmlns="http://www.w3.org/2000/svg">
<path d="M20.0001 20L15.9501 15.95M15.9501 15.95C16.6002 15.3 17.1158 14.5282 17.4676 13.6789C17.8194 12.8296 18.0005 11.9193 18.0005 11C18.0005 10.0807 17.8194 9.1704 17.4676 8.32108C17.1158 7.47176 16.6002 6.70004 15.9501 6.05C15.3001 5.39996 14.5284 4.88431 13.679 4.53251C12.8297 4.18071 11.9194 3.99964 11.0001 3.99964C10.0808 3.99964 9.17051 4.18071 8.32119 4.53251C7.47187 4.88431 6.70016 5.39996 6.05011 6.05C4.73729 7.36282 3.99976 9.14339 3.99976 11C3.99976 12.8566 4.73729 14.6372 6.05011 15.95C7.36293 17.2628 9.1435 18.0004 11.0001 18.0004C12.8567 18.0004 14.6373 17.2628 15.9501 15.95V15.95Z" stroke="#414249" stroke-width="1.4" stroke-linecap="round" stroke-linejoin="round"/>
</svg>
