<svg width="32" height="32" viewBox="0 0 32 32" fill="none" xmlns="http://www.w3.org/2000/svg">
<path d="M24.8479 19.7326H23.6045C23.1599 19.7326 22.7745 19.9553 22.5825 20.2815C22.5455 20.3443 22.5166 20.4112 22.4949 20.4803L21.0649 20.4532L21.0184 20.4523C20.8693 20.4491 20.7378 20.3769 20.6547 20.2662C20.5358 20.108 20.4116 19.953 20.2553 19.832C19.7673 19.4552 19.1506 19.2772 18.5167 19.3467L12.6373 19.9915C12.4435 20.0127 12.2948 20.1699 12.2813 20.3619C12.2804 20.3714 12.2804 20.3805 12.2804 20.3899C12.2804 20.4749 12.2939 20.5607 12.3219 20.6443C12.3441 20.708 12.3748 20.7699 12.4137 20.8277C12.4223 20.8413 12.4313 20.8549 12.4417 20.868C12.654 21.1476 12.9897 21.3139 13.3399 21.3139C13.3805 21.3139 13.4221 21.3112 13.4632 21.3071C14.3456 21.2095 15.6531 21.0649 16.3426 20.989C16.5997 20.9606 16.8301 21.1458 16.8581 21.4029C16.8861 21.6595 16.7018 21.89 16.4456 21.9184C15.7566 21.9948 14.4491 22.1389 13.568 22.236C13.4949 22.2446 13.4167 22.2487 13.3403 22.2487C12.7006 22.2487 12.087 21.9446 11.6976 21.4336C11.6126 21.3216 11.5412 21.2 11.4861 21.0708C11.468 21.0293 11.4513 20.9859 11.4369 20.9425C11.3759 20.7595 11.3461 20.5752 11.3461 20.3899C11.3461 20.3886 11.3461 20.3872 11.3461 20.3854C11.347 20.1148 11.2092 19.8631 10.9702 19.7357L9.64906 19.0309C8.8358 18.5976 7.89108 18.458 6.98746 18.6383C6.63324 18.7088 6.32963 18.9297 6.15387 19.2451C5.98128 19.5537 5.95236 19.9192 6.0748 20.2476C6.21576 20.6281 6.48505 20.9547 6.83113 21.1662L11.9433 24.2922C12.3649 24.5497 12.8474 24.6857 13.3403 24.6857H22.4935C22.5071 24.7296 22.5224 24.7725 22.5423 24.8132C22.7158 25.1805 23.127 25.4385 23.6054 25.4385H24.8488C25.4836 25.4385 26 24.9826 26 24.4219V20.7482C25.9991 20.1884 25.4822 19.7326 24.8479 19.7326Z" fill="#414249"/>
<path d="M16.1309 17.2553C16.2678 17.4135 16.4585 17.5002 16.6677 17.5002H16.6704C16.8819 17.4993 17.0725 17.4108 17.2094 17.2508L22.0745 11.5472C22.8308 10.6594 23.0124 9.4386 22.548 8.36014C22.0894 7.29477 21.1307 6.62474 19.9853 6.566C19.923 6.56329 19.8606 6.56149 19.7983 6.56149C18.7144 6.56149 17.6978 7.04177 17.0084 7.88032C16.9117 7.9987 16.7666 8.06646 16.6139 8.06646C16.4603 8.06646 16.3153 7.9987 16.2186 7.88032C15.53 7.04177 14.513 6.56149 13.4287 6.56149C13.3727 6.56149 13.318 6.56239 13.2629 6.56511C12.1184 6.61616 11.1606 7.28528 10.702 8.35381C10.233 9.44538 10.4219 10.6756 11.1936 11.5653L16.1309 17.2553Z" fill="#414249"/>
</svg>
