<svg width="99" height="88" viewBox="0 0 99 88" fill="none" xmlns="http://www.w3.org/2000/svg">
<path d="M51.8579 68.9096C49.895 65.8968 48.3621 62.187 48.1404 58.53C48.0362 56.8167 48.0816 54.9785 48.6861 53.3554C49.2979 51.704 50.6798 50.5829 52.1024 49.6996C53.4991 48.8318 55.1289 47.9681 56.8077 48.0999C58.2209 48.2111 59.576 48.9408 60.6431 49.878C63.7022 52.5594 65.796 56.5904 67.7103 60.1564C69.062 62.6755 72.8379 60.426 71.4689 57.9172C69.5449 54.4166 67.4316 50.7427 64.7002 47.8422C62.3514 45.3572 59.0763 43.5074 55.6237 43.92C52.2727 44.3079 48.7154 46.9275 46.7714 49.7062C44.778 52.5619 44.5647 56.2874 44.9985 59.6631C45.2553 61.6905 45.8256 63.6385 46.6287 65.5073C47.4568 67.4208 48.6217 68.8835 50.0853 70.3231C50.9697 71.2022 52.5958 70.0428 51.8579 68.9096Z" fill="#CEE8FF"/>
<path d="M40.9671 75.9226C40.4948 73.1179 39.3433 70.42 38.6541 67.6611C37.989 65.0071 37.6077 62.3031 37.6268 59.5512C37.6443 54.6913 38.9554 49.8114 41.7403 45.8527C43.3134 43.6286 45.456 41.7207 47.5973 40.0995C49.7039 38.4989 51.9893 37.1969 54.5907 36.7076C58.8367 35.9175 63.3634 37.4864 66.9504 39.7699C69.4392 41.3494 71.605 43.3835 73.6175 45.5565C74.7079 46.7418 75.7564 47.9759 76.7702 49.2307C77.8227 50.5339 78.7593 52.0015 79.9687 53.1517C82.0275 55.1184 85.2019 52.6195 83.8649 50.0441C83.1182 48.6063 82.0151 47.3571 81.0359 46.0817C80.003 44.731 78.9406 43.4099 77.8361 42.1376C75.6659 39.6416 73.2808 37.3807 70.607 35.4705C66.2275 32.3485 60.723 30.3733 55.3508 30.9048C48.8739 31.5464 42.9872 35.8637 38.9247 40.9649C35.2125 45.619 33.2464 51.33 32.8691 57.3217C32.6556 60.7375 33.0292 64.2325 33.8051 67.5593C34.6028 71.028 35.8746 74.8696 38.2218 77.5581C39.3972 78.8953 41.2254 77.4368 40.9671 75.9226Z" fill="#FF8F8F"/>
<path d="M29.6282 81.2479C27.9736 77.5271 26.2907 73.8589 25.2231 69.9076C24.1631 66.0113 23.7155 62.0124 23.9101 57.9644C24.2394 50.917 26.5935 43.7118 30.7305 38.042C31.9166 36.406 33.3904 35.0156 34.8455 33.6126C36.2759 32.248 37.7583 30.8525 39.1456 29.8235C42.4986 27.3135 46.1322 25.1607 49.9579 23.5368C51.1911 23.0166 53.2134 22.2765 54.7954 21.8225C55.7035 21.5675 56.6179 21.3444 57.54 21.1764C57.7396 21.1409 57.9391 21.1054 58.13 21.0751C58.7833 20.9838 57.7332 21.1089 58.3792 21.0458C58.8429 21.0078 59.3066 20.9699 59.768 20.969C61.652 20.9309 62.943 21.1746 64.8775 21.9285C66.5921 22.599 68.5986 23.6675 70.4009 24.5359C72.4567 25.5274 74.7481 26.4857 76.5302 27.8547C78.3546 29.2581 79.9684 31.2755 81.4461 33.1117C84.5612 36.9871 86.9143 41.3164 89.6301 45.4893C90.6726 47.0843 92.6591 47.8073 94.3565 46.7961C96.1232 45.7436 96.3761 43.6984 95.623 41.9189C93.6579 37.2512 90.4381 32.9616 87.3722 29.0093C84.2863 25.0212 81.0787 21.5584 76.5788 19.2945C74.4147 18.2126 72.2346 17.1642 70.0545 16.1157C67.9527 15.104 65.8002 14.1463 63.5014 13.7524C59.0849 12.9996 54.643 13.811 50.4558 15.3047C41.6986 18.4129 33.3915 23.4811 27.6417 31.0769C22.3285 38.0909 18.8512 46.0128 17.8675 54.9038C16.7719 64.8742 19.0806 76.7603 25.9731 84.188C26.7669 85.0495 28.1625 85.0879 29.0388 84.3633C29.9867 83.5603 30.1329 82.377 29.6282 81.2479Z" fill="#FFE4BB"/>
</svg>
