<svg width="47" height="46" viewBox="0 0 47 46" fill="none" xmlns="http://www.w3.org/2000/svg">
<path d="M44.5597 19.3641C41.2452 18.1628 38.0123 16.7898 34.8608 15.2453C35.6487 12.8141 37.8221 7.00777 38.5556 4.51934C39.5065 1.28726 36.8712 -0.0570607 34.5891 1.7735C32.3342 3.57546 27.6884 8.15187 25.4606 9.98243C21.956 7.72283 18.5872 5.2058 15.3542 2.37415C12.8547 0.171757 9.37725 3.46105 9.94778 6.37851C10.8443 10.8405 12.4472 15.2167 13.9958 19.5929C10.0293 23.0252 6.11713 26.5433 2.34079 30.2044C-1.70723 31.6632 -0.131483 38.6136 4.21538 37.4123C8.80677 36.1538 13.3981 34.8953 17.9895 33.6081C18.397 36.2396 18.56 38.8996 18.2884 41.6454C17.8808 45.993 23.8034 46.5937 25.1346 42.8468C26.6289 38.6994 28.1231 34.552 29.6173 30.4046C34.4804 29.0889 39.3707 27.8018 44.2609 26.5719C47.8199 25.7424 47.9013 20.5654 44.5597 19.3641Z" fill="#FFE4BB"/>
</svg>
