<svg width="100" height="95" viewBox="0 0 100 95" fill="none" xmlns="http://www.w3.org/2000/svg">
<path d="M48.4443 19.1749C47.5456 16.5232 42.5209 17.2579 42.9938 20.2068C44.3239 28.5192 45.6434 38.8303 49.8155 46.2502C51.0463 48.4397 54.417 46.8925 54.4716 44.7739C54.7087 36.5325 51.0731 26.8913 48.4443 19.1749Z" fill="#FF8F8F"/>
<path d="M18.0882 43.8248C15.3681 43.1763 13.3464 47.6046 16.0943 48.75C23.8385 51.9808 33.2708 56.2548 41.7544 56.7341C44.2575 56.8759 44.7203 53.3595 42.9537 52.219C36.0944 47.7623 26.0108 45.701 18.0882 43.8248Z" fill="#FF8F8F"/>
<path d="M33.8641 68.9898C27.8786 70.311 22.2918 72.9743 16.6613 75.3716C13.6555 76.6564 15.3476 81.0121 18.4151 79.9387C24.1933 77.926 30.0786 76.1159 35.423 73.0494C37.4094 71.9196 36.0388 68.5024 33.8641 68.9898Z" fill="#FF8F8F"/>
<path d="M81.6961 29.1431C75.7988 34.2954 70.3144 39.8643 64.2636 44.867C61.5545 47.1048 64.2368 51.4813 67.2815 49.3444C74.2747 44.4169 80.7568 38.6961 85.3955 31.5727C86.9124 29.2331 83.4927 27.5687 81.6961 29.1431Z" fill="#FF8F8F"/>
</svg>
