<svg width="20" height="20" viewBox="0 0 20 20" fill="none" xmlns="http://www.w3.org/2000/svg">
<g clip-path="url(#clip0_229_989)">
<path d="M9.95784 0.811059C11.2265 0.811059 12.4382 1.05906 13.5928 1.55506C14.7475 2.05106 15.7435 2.71773 16.5808 3.55506C17.4182 4.39239 18.0848 5.38839 18.5808 6.54306C19.0768 7.69773 19.3248 8.90939 19.3248 10.1781C19.3248 11.8694 18.9062 13.4347 18.0688 14.8741C17.2315 16.3134 16.0932 17.4517 14.6538 18.2891C13.2145 19.1264 11.6492 19.5451 9.95784 19.5451C9.03118 19.5451 8.14484 19.4231 7.29884 19.1791C7.77018 18.4144 8.08718 17.7394 8.24984 17.1541L8.90884 14.5931C9.07151 14.9017 9.37251 15.1741 9.81184 15.4101C10.2512 15.6461 10.7145 15.7641 11.2018 15.7641C12.1778 15.7641 13.0518 15.4834 13.8238 14.9221C14.5958 14.3607 15.1935 13.5924 15.6168 12.6171C16.0402 11.6417 16.2515 10.5441 16.2508 9.32406C16.2508 7.87673 15.6938 6.62039 14.5798 5.55506C13.4658 4.48973 12.0468 3.95706 10.3228 3.95706C9.26551 3.95706 8.29784 4.13606 7.41984 4.49406C6.54184 4.85206 5.83451 5.31973 5.29784 5.89706C4.76118 6.47439 4.35051 7.10039 4.06584 7.77506C3.78118 8.44973 3.63884 9.12873 3.63884 9.81206C3.63884 10.6574 3.79751 11.3974 4.11484 12.0321C4.43218 12.6667 4.90784 13.1141 5.54184 13.3741C5.65584 13.4227 5.75351 13.4267 5.83484 13.3861C5.91618 13.3454 5.97318 13.2681 6.00584 13.1541C6.11984 12.7474 6.18484 12.4954 6.20084 12.3981C6.26618 12.2194 6.22551 12.0487 6.07884 11.8861C5.65618 11.4147 5.44484 10.8047 5.44484 10.0561C5.44484 8.82006 5.87184 7.75906 6.72584 6.87306C7.57984 5.98706 8.69784 5.54406 10.0798 5.54406C11.2998 5.54406 12.2512 5.87739 12.9338 6.54406C13.6165 7.21073 13.9582 8.08073 13.9588 9.15406C13.9588 10.0487 13.8368 10.8741 13.5928 11.6301C13.3488 12.3861 12.9992 12.9917 12.5438 13.4471C12.0885 13.9024 11.5682 14.1301 10.9828 14.1301C10.4948 14.1301 10.0965 13.9511 9.78784 13.5931C9.47918 13.2351 9.38151 12.8121 9.49484 12.3241C9.56018 12.0961 9.64551 11.8034 9.75084 11.4461C9.85618 11.0887 9.94551 10.7837 10.0188 10.5311C10.0922 10.2784 10.1612 10.0061 10.2258 9.71406C10.2905 9.42206 10.3232 9.17806 10.3238 8.98206C10.3238 8.57539 10.2182 8.24206 10.0068 7.98206C9.79551 7.72206 9.48651 7.59206 9.07984 7.59206C8.57584 7.59206 8.15284 7.82373 7.81084 8.28706C7.46884 8.75039 7.29818 9.33173 7.29884 10.0311C7.29884 10.2911 7.31918 10.5431 7.35984 10.7871C7.40051 11.0311 7.44518 11.2101 7.49384 11.3241L7.56684 11.4951C6.90018 14.3897 6.49351 16.0891 6.34684 16.5931C6.21684 17.2111 6.16818 17.9347 6.20084 18.7641C4.52551 18.0161 3.17151 16.8694 2.13884 15.3241C1.10618 13.7787 0.589844 12.0631 0.589844 10.1771C0.589844 7.59106 1.50451 5.38339 3.33384 3.55406C5.16318 1.72473 7.37084 0.810059 9.95684 0.810059L9.95784 0.811059Z" fill="white"/>
</g>
<defs>
<clipPath id="clip0_229_989">
<rect width="20" height="20" fill="white"/>
</clipPath>
</defs>
</svg>
