<svg width="20" height="20" viewBox="0 0 20 20" fill="none" xmlns="http://www.w3.org/2000/svg">
<path d="M19.5509 4.20798C19.0076 5.00931 18.3556 5.68865 17.5949 6.24598C17.5949 6.30065 17.6016 6.38565 17.6149 6.50098C17.6283 6.61631 17.6349 6.70131 17.6349 6.75598C17.6349 7.81531 17.4786 8.87498 17.1659 9.93498C16.8533 10.995 16.3779 12.007 15.7399 12.971C15.1019 13.935 14.3446 14.7906 13.4679 15.538C12.5913 16.2853 11.5386 16.883 10.3099 17.331C9.08125 17.779 7.76025 18.003 6.34692 18.003C4.14625 18.003 2.13592 17.412 0.315918 16.23C0.696585 16.2573 1.00892 16.271 1.25292 16.271C3.08692 16.271 4.72392 15.714 6.16392 14.6C5.30792 14.5866 4.54392 14.3253 3.87192 13.816C3.19992 13.3066 2.72792 12.6513 2.45592 11.85C2.68658 11.9046 2.93792 11.932 3.20992 11.932C3.57658 11.932 3.92292 11.8776 4.24892 11.769C3.33892 11.579 2.58492 11.124 1.98692 10.404C1.38892 9.68398 1.08992 8.85531 1.08992 7.91798V7.87698C1.60592 8.14898 2.19692 8.29831 2.86292 8.32498C2.33292 7.97165 1.91192 7.50631 1.59992 6.92898C1.28792 6.35165 1.13158 5.73031 1.13092 5.06498C1.13092 4.38565 1.30058 3.71998 1.63992 3.06798C2.63125 4.30398 3.82992 5.27865 5.23592 5.99198C6.64192 6.70531 8.16658 7.10265 9.80992 7.18398C9.71459 6.84465 9.66692 6.54565 9.66692 6.28698C9.66692 5.20031 10.0539 4.27331 10.8279 3.50598C11.6019 2.73865 12.5459 2.35498 13.6599 2.35498C14.2033 2.35498 14.7263 2.46365 15.2289 2.68098C15.7316 2.89831 16.1596 3.20398 16.5129 3.59798C17.4096 3.42131 18.2449 3.10198 19.0189 2.63998C18.7336 3.56398 18.1563 4.29065 17.2869 4.81998C18.1156 4.71131 18.8696 4.50765 19.5489 4.20898L19.5509 4.20798Z" fill="white"/>
</svg>
