<svg width="24" height="24" viewBox="0 0 24 24" fill="none" xmlns="http://www.w3.org/2000/svg">
<path d="M19.9999 20.0001L15.9499 15.9501M15.9499 15.9501C16.5999 15.3001 17.1156 14.5284 17.4674 13.679C17.8192 12.8297 18.0002 11.9194 18.0002 11.0001C18.0002 10.0808 17.8192 9.17051 17.4674 8.32119C17.1156 7.47187 16.5999 6.70016 15.9499 6.05011C15.2998 5.40007 14.5281 4.88443 13.6788 4.53263C12.8295 4.18083 11.9192 3.99976 10.9999 3.99976C10.0806 3.99976 9.17027 4.18083 8.32095 4.53263C7.47163 4.88443 6.69991 5.40007 6.04987 6.05011C4.73705 7.36293 3.99951 9.1435 3.99951 11.0001C3.99951 12.8567 4.73705 14.6373 6.04987 15.9501C7.36269 17.2629 9.14326 18.0005 10.9999 18.0005C12.8565 18.0005 14.637 17.2629 15.9499 15.9501V15.9501Z" stroke="#414249" stroke-width="1.4" stroke-linecap="round" stroke-linejoin="round"/>
</svg>
