<svg width="32" height="32" viewBox="0 0 32 32" fill="none" xmlns="http://www.w3.org/2000/svg">
<path d="M27.9572 16.5059C27.9539 16.4907 27.949 16.4755 27.9442 16.4609C27.9344 16.431 27.9208 16.4028 27.9073 16.3757C27.8119 16.1995 27.6275 16.0862 27.422 16.0862H26.5616H24.5767C24.0161 16.0862 23.5428 15.7452 23.5428 15.3413V14.1441H25.6611H26.0129C26.2016 14.1441 26.3767 14.0476 26.4781 13.8893C26.5795 13.731 26.5925 13.5315 26.5134 13.3612L25.5195 11.2175C25.345 10.8434 24.9649 10.601 24.5518 10.601H18.3362V8.79936C18.3362 8.21055 17.858 7.73236 17.2692 7.73236H5.06701C4.4782 7.73236 4 8.21055 4 8.79936V21.675C4 22.2638 4.4782 22.7425 5.06701 22.7425H7.45908C7.42981 22.5631 7.41409 22.3793 7.41409 22.1917C7.41409 20.3027 8.95224 18.764 10.8417 18.764C12.7312 18.764 14.2672 20.3022 14.2672 22.1917C14.2672 22.3793 14.2515 22.5631 14.2222 22.7425H18.3878C18.3585 22.5631 18.3427 22.3793 18.3427 22.1917C18.3427 20.3027 19.8809 18.764 21.7704 18.764C23.6599 18.764 25.1959 20.3022 25.1959 22.1917C25.1959 22.3793 25.1801 22.5631 25.1509 22.7425H26.9325C27.5213 22.7425 28 22.2632 28 21.675V16.8024C28 16.701 27.9864 16.6007 27.9572 16.5059Z" fill="#414249"/>
<path d="M10.8413 24.2677C11.9887 24.2677 12.9189 23.3375 12.9189 22.19C12.9189 21.0426 11.9887 20.1124 10.8413 20.1124C9.69386 20.1124 8.76367 21.0426 8.76367 22.19C8.76367 23.3375 9.69386 24.2677 10.8413 24.2677Z" fill="#414249"/>
<path d="M21.77 24.2677C22.9174 24.2677 23.8476 23.3375 23.8476 22.19C23.8476 21.0426 22.9174 20.1124 21.77 20.1124C20.6226 20.1124 19.6924 21.0426 19.6924 22.19C19.6924 23.3375 20.6226 24.2677 21.77 24.2677Z" fill="#414249"/>
</svg>
