<svg width="21" height="20" viewBox="0 0 21 20" fill="none" xmlns="http://www.w3.org/2000/svg">
<path d="M15.9184 12.1771C15.6594 12.4281 15.5404 12.7911 15.5994 13.1471L16.4884 18.0671C16.5634 18.4841 16.3874 18.9061 16.0384 19.1471C15.6964 19.3971 15.2414 19.4271 14.8684 19.2271L10.4394 16.9171C10.2854 16.8351 10.1144 16.7911 9.93939 16.7861H9.66839C9.57439 16.8001 9.48239 16.8301 9.39839 16.8761L4.96839 19.1971C4.74939 19.3071 4.50139 19.3461 4.25839 19.3071C3.66639 19.1951 3.27139 18.6311 3.36839 18.0361L4.25839 13.1161C4.31739 12.7571 4.19839 12.3921 3.93939 12.1371L0.328388 8.63706C0.0263875 8.34406 -0.0786125 7.90406 0.0593875 7.50706C0.193388 7.11106 0.535388 6.82206 0.948388 6.75706L5.91839 6.03606C6.29639 5.99706 6.62839 5.76706 6.79839 5.42706L8.98839 0.937056C9.04039 0.837056 9.10739 0.745056 9.18839 0.667056L9.27839 0.597056C9.32539 0.545056 9.37939 0.502056 9.43939 0.467056L9.54839 0.427056L9.71839 0.357056H10.1394C10.5154 0.396056 10.8464 0.621056 11.0194 0.957056L13.2384 5.42706C13.3984 5.75406 13.7094 5.98106 14.0684 6.03606L19.0384 6.75706C19.4584 6.81706 19.8094 7.10706 19.9484 7.50706C20.0794 7.90806 19.9664 8.34806 19.6584 8.63706L15.9184 12.1771Z" fill="#FFE4BB"/>
</svg>
