<svg width="32" height="32" viewBox="0 0 32 32" fill="none" xmlns="http://www.w3.org/2000/svg">
<path d="M23.8348 14.9353H8.16473C7.61235 14.9353 7.09388 14.667 6.7754 14.2155C6.45646 13.7645 6.37685 13.1863 6.56143 12.6656C7.97426 8.67864 11.7676 6 16.0007 6C20.2333 6 24.0262 8.67864 25.439 12.6656C25.6236 13.1863 25.544 13.7645 25.225 14.2155C24.9057 14.667 24.3877 14.9353 23.8348 14.9353ZM11.1397 11.5328H20.8599C19.6325 10.205 17.8822 9.40293 16.0002 9.40293C14.1178 9.40293 12.367 10.205 11.1397 11.5328Z" fill="#414249"/>
<path d="M23.844 20.4672H8.15585C7.43383 20.4672 6.79008 20.0112 6.55076 19.3299C6.17663 18.2654 5.98706 17.1493 5.98706 16.0125C5.98706 14.8625 6.18068 13.736 6.56205 12.6638C6.80318 11.9857 7.44515 11.5328 8.16491 11.5328H23.835C24.5552 11.5328 25.1976 11.9866 25.4383 12.6652C25.8192 13.7392 26.0128 14.8652 26.0128 16.0125C26.0128 17.1493 25.8233 18.2654 25.4492 19.3299C25.2098 20.0116 24.5665 20.4672 23.844 20.4672ZM9.47322 17.0647H22.5271C22.5823 16.7187 22.6104 16.3676 22.6104 16.0125C22.6104 15.6492 22.581 15.2895 22.5231 14.9353H9.47731C9.4194 15.2891 9.39044 15.6487 9.39044 16.0125C9.38999 16.3676 9.41758 16.7187 9.47322 17.0647Z" fill="#414249"/>
<path d="M16.6551 26H15.3454C15.3015 26 15.2572 25.9982 15.2133 25.995C11.2625 25.6878 7.8623 23.0712 6.55035 19.329C6.36803 18.8082 6.44902 18.2319 6.76796 17.7818C7.0869 17.3316 7.60444 17.0643 8.15591 17.0643H23.8441C24.3956 17.0643 24.9131 17.3316 25.232 17.7818C25.551 18.2314 25.6324 18.8082 25.4497 19.329C24.1377 23.0712 20.7375 25.6874 16.7872 25.995C16.7433 25.9982 16.6994 26 16.6551 26ZM15.4155 22.5971H16.5854C18.2652 22.4505 19.7902 21.6701 20.8873 20.4672H11.1132C12.2098 21.6706 13.7353 22.4505 15.4155 22.5971Z" fill="#414249"/>
<path d="M23.8349 13.2343H8.16479C9.3071 10.0105 12.3834 7.70151 16.0003 7.70151C19.6163 7.70151 22.6926 10.0105 23.8349 13.2343Z" fill="#414249"/>
<path d="M24.3111 16.0126C24.3111 16.978 24.1464 17.904 23.8438 18.7658H8.15557C7.85291 17.904 7.68823 16.9775 7.68823 16.0126C7.68823 15.0381 7.85564 14.103 8.16462 13.2339H23.8347C24.1433 14.103 24.3111 15.0385 24.3111 16.0126Z" fill="#F21616"/>
<path d="M23.844 18.7662C22.7781 21.8063 19.9932 24.0388 16.6549 24.299H15.3453C12.0066 24.0393 9.22161 21.8067 8.15576 18.7662H23.844Z" fill="#FAE41D"/>
</svg>
