<svg width="32" height="32" viewBox="0 0 32 32" fill="none" xmlns="http://www.w3.org/2000/svg">
<path d="M15.6267 9.46856C15.7664 9.76083 16.1827 9.75935 16.3199 9.46607C16.3644 9.37049 16.4085 9.27639 16.4525 9.1823C17.4239 7.10588 19.737 5.78316 21.9656 6.02939C24.4299 6.30164 26.4047 7.98569 26.9142 10.2988C27.3366 12.2191 26.9127 13.9988 25.8973 15.6518C25.125 16.9085 24.0891 17.9389 23.0141 18.9313C21.4887 20.3396 19.8847 21.6624 18.4333 23.1512C17.5956 24.0105 16.8063 24.9114 16.0992 25.8823C16.0211 25.9899 15.9741 26.0709 15.8515 25.9063C14.3175 23.8484 12.4338 22.1323 10.512 20.4532C9.28537 19.3812 8.04872 18.3188 7.00075 17.0616C5.94778 15.7979 5.24162 14.3836 4.99789 12.7366C4.63956 10.3113 5.59095 8.07829 7.55476 6.84915C10.3569 5.09552 14.0548 6.16901 15.4731 9.14777C15.5242 9.25337 15.5752 9.36046 15.6267 9.46856Z" fill="#414249"/>
</svg>
