<svg width="32" height="32" viewBox="0 0 32 32" fill="none" xmlns="http://www.w3.org/2000/svg">
<path d="M24.058 7.58026C23.7775 7.1709 23.3759 6.84604 22.8866 6.65492C22.7754 6.612 22.6587 6.56591 22.5384 6.51712C18.322 4.81103 13.678 4.81103 9.4624 6.51712C9.34167 6.56636 9.22457 6.612 9.11428 6.65492C8.13618 7.03626 7.50439 7.95753 7.50439 9.00169V12.4627C7.50439 14.5727 7.99457 16.6913 8.92138 18.5903C9.84819 20.4884 11.2189 22.1814 12.8855 23.4854L14.4359 24.6972C14.8966 25.0577 15.4485 25.2375 16 25.2375C16.5523 25.2375 17.1038 25.0573 17.564 24.6972L19.1144 23.4854C20.7815 22.1814 22.1527 20.488 23.0795 18.5903C24.0063 16.6918 24.4955 14.5731 24.4955 12.4627V9.00169C24.4955 8.48029 24.3376 7.9878 24.058 7.58026ZM11.4762 13.4391C11.6478 13.2683 11.8729 13.1838 12.098 13.1838C12.3231 13.1838 12.5483 13.2683 12.7198 13.4391L14.8753 15.5848C15.0577 15.7669 15.3537 15.7669 15.5361 15.5848L19.6949 11.4456C19.8615 11.2798 20.0825 11.1885 20.3167 11.1885C20.5523 11.1885 20.7729 11.2798 20.9386 11.4456C21.1051 11.6105 21.1959 11.8306 21.1959 12.0646C21.1959 12.2982 21.1051 12.5178 20.9386 12.6836L15.8275 17.7716C15.6618 17.9365 15.4408 18.0278 15.2057 18.0278C14.971 18.0278 14.7505 17.9365 14.5839 17.7716L11.4762 14.6771C11.3097 14.5121 11.2189 14.2921 11.2189 14.0581C11.2189 13.8245 11.3101 13.6044 11.4762 13.4391Z" fill="#414249"/>
</svg>
