<svg width="32" height="33" viewBox="0 0 32 33" fill="none" xmlns="http://www.w3.org/2000/svg">
<path fill-rule="evenodd" clip-rule="evenodd" d="M21.3333 4.85693C25.0152 4.85693 28 7.84171 28 11.5236V22.1903C28 25.8721 25.0152 28.8569 21.3333 28.8569H10.6667C6.98477 28.8569 4 25.8721 4 22.1903L4 11.5236C4 7.84171 6.98477 4.85693 10.6667 4.85693L21.3333 4.85693ZM21.3333 7.5236L10.6667 7.5236C8.45753 7.5236 6.66667 9.31447 6.66667 11.5236L6.66667 22.1903C6.66667 24.3995 8.45753 26.1903 10.6667 26.1903H21.3333C23.5425 26.1903 25.3333 24.3995 25.3333 22.1903V11.5236C25.3333 9.31447 23.5425 7.5236 21.3333 7.5236ZM16 11.5236C18.9455 11.5236 21.3333 13.9114 21.3333 16.8569C21.3333 19.8024 18.9455 22.1903 16 22.1903C13.0545 22.1903 10.6667 19.8024 10.6667 16.8569C10.6667 13.9114 13.0545 11.5236 16 11.5236ZM16 14.1903C14.5272 14.1903 13.3333 15.3841 13.3333 16.8569C13.3333 18.3297 14.5272 19.5236 16 19.5236C17.4728 19.5236 18.6667 18.3297 18.6667 16.8569C18.6667 15.3841 17.4728 14.1903 16 14.1903ZM22 9.5236C22.7364 9.5236 23.3333 10.1206 23.3333 10.8569C23.3333 11.5933 22.7364 12.1903 22 12.1903C21.2636 12.1903 20.6667 11.5933 20.6667 10.8569C20.6667 10.1206 21.2636 9.5236 22 9.5236Z" fill="#FF8F8F"/>
</svg>
