<svg width="32" height="32" viewBox="0 0 32 32" fill="none" xmlns="http://www.w3.org/2000/svg">
<path d="M18.6381 8.68195L18.7378 7.75891C18.8069 7.12187 18.4869 6.50606 17.9263 6.19703C17.3657 5.888 16.6747 5.94628 16.1737 6.34522L13.3027 8.63089C12.6568 9.14549 12.5183 10.064 12.966 10.7449C13.0305 10.861 13.1091 10.9676 13.1989 11.0625L15.3166 13.8759C15.6213 14.2802 16.0934 14.5079 16.5835 14.5079C16.7235 14.5079 16.8652 14.4894 17.0047 14.451C17.632 14.278 18.0901 13.739 18.1601 13.0915L18.2851 11.9358C20.3266 12.8304 21.7086 14.882 21.6761 17.2233C21.6346 20.2693 19.1246 22.7818 16.0812 22.8238C14.5507 22.8473 13.1041 22.2645 12.0137 21.1883C10.9227 20.1117 10.3225 18.6745 10.3225 17.1415C10.3225 16.1683 10.5721 15.2087 11.0437 14.367C11.4725 13.6021 11.2008 12.6343 10.4367 12.2055C9.67252 11.7768 8.70574 12.0483 8.27741 12.8132C7.53991 14.1284 7.15039 15.6253 7.15039 17.142C7.15039 19.5315 8.08649 21.7716 9.78671 23.4496C11.4558 25.0973 13.657 26 15.9972 26C16.0401 26 16.083 25.9995 16.1259 25.9991C18.4336 25.967 20.6091 25.0435 22.252 23.399C23.8949 21.7544 24.817 19.5763 24.8486 17.2671C24.9046 13.2763 22.3202 9.8241 18.6381 8.68195Z" fill="#414249"/>
</svg>
