<svg width="38" height="24" viewBox="0 0 38 24" fill="none" xmlns="http://www.w3.org/2000/svg">
<g clip-path="url(#clip0_229_1008)">
<path d="M34.597 0H3.40304C3.2731 0 3.14292 0 3.01321 0.00067947C2.9037 0.00158543 2.79442 0.00271788 2.68492 0.00566225C2.44638 0.012004 2.20579 0.0260463 1.97024 0.0677205C1.73401 0.107648 1.50514 0.182075 1.29115 0.288548C0.860956 0.504411 0.511289 0.849374 0.292483 1.27378C0.184364 1.48497 0.108915 1.71095 0.0686439 1.94419C0.0259423 2.17679 0.0119381 2.41393 0.00550987 2.64903C0.00271191 2.75697 0.00102825 2.86493 0.000459156 2.97291C0 3.10065 0 3.22884 0 3.35726V20.6425C0 20.7709 0 20.8989 0.000459156 21.0273C0.00114789 21.1351 0.00252536 21.2432 0.00550987 21.3512C0.0119381 21.5858 0.0261719 21.8232 0.0686439 22.0556C0.108832 22.2888 0.184205 22.5148 0.292253 22.726C0.400886 22.9369 0.542684 23.1296 0.712381 23.2968C0.881788 23.4642 1.07706 23.6041 1.29092 23.7112C1.50833 23.8206 1.73102 23.8902 1.97047 23.9325C2.20579 23.974 2.44638 23.988 2.68492 23.9943C2.79442 23.9968 2.9037 23.9982 3.01321 23.9989C3.14292 23.9998 3.2731 23.9998 3.40304 23.9998H34.597C34.7267 23.9998 34.8568 23.9998 34.9866 23.9989C35.0958 23.9984 35.2051 23.9968 35.3151 23.9943C35.5532 23.988 35.7938 23.974 36.0298 23.9325C36.266 23.8925 36.4949 23.818 36.7089 23.7112C37.1388 23.4951 37.4884 23.1502 37.7075 22.726C37.8184 22.5115 37.8887 22.2918 37.9311 22.0556C37.9738 21.8232 37.9876 21.5858 37.994 21.3512C37.997 21.2432 37.9986 21.1351 37.9991 21.0273C38 20.8989 38 20.7709 38 20.6425V3.35749C38 3.22907 38 3.10087 37.9991 2.97268C37.9986 2.86478 37.997 2.75689 37.994 2.64903C37.9876 2.41393 37.9738 2.17679 37.9311 1.94419C37.8911 1.71091 37.8158 1.4849 37.7075 1.27378C37.4886 0.849449 37.139 0.504513 36.7089 0.288548C36.4948 0.182184 36.266 0.107836 36.0298 0.067947C35.7938 0.0260463 35.5532 0.0122305 35.3151 0.00588874C35.2056 0.00314533 35.0961 0.00148432 34.9866 0.00090596C34.8568 0 34.7267 0 34.597 0Z" fill="black"/>
<path d="M34.5971 0.799805L34.981 0.800484C35.0848 0.801164 35.1888 0.802296 35.2932 0.805014C35.4753 0.809997 35.6879 0.819736 35.8862 0.854842C36.0584 0.885418 36.203 0.931848 36.3417 1.00161C36.6192 1.1408 36.8446 1.36345 36.9854 1.63736C37.0557 1.77326 37.1025 1.91504 37.1335 2.08649C37.1689 2.27992 37.1787 2.49033 37.1836 2.67084C37.1865 2.77276 37.1879 2.87468 37.1881 2.97886C37.1893 3.10502 37.1893 3.23095 37.1893 3.35733V20.6426C37.1893 20.769 37.1893 20.8949 37.1884 21.0235C37.1879 21.1255 37.1865 21.2274 37.1838 21.3293C37.1787 21.5096 37.1689 21.72 37.133 21.9157C37.107 22.0713 37.0571 22.2222 36.985 22.363C36.8439 22.637 36.6181 22.8597 36.3403 22.9988C36.2026 23.0681 36.0584 23.1145 35.8878 23.1448C35.6856 23.1804 35.4638 23.1901 35.2969 23.1947C35.192 23.1969 35.0875 23.1985 34.9803 23.199C34.8529 23.1999 34.7248 23.1999 34.5971 23.1999H3.39815C3.27188 23.1999 3.14561 23.1999 3.01705 23.199C2.91373 23.1985 2.81042 23.1972 2.70712 23.1949C2.53631 23.1904 2.31454 23.1804 2.11389 23.1451C1.95525 23.119 1.80152 23.0694 1.65795 22.9979C1.52023 22.9288 1.39453 22.8386 1.28557 22.7306C1.17627 22.623 1.08499 22.4989 1.01513 22.363C0.942984 22.2214 0.892982 22.0698 0.866823 21.9134C0.831008 21.718 0.820907 21.5085 0.816315 21.3295C0.813722 21.2273 0.812191 21.1249 0.811724 21.0226L0.811035 20.7221V3.27806L0.811494 2.97796C0.811968 2.8755 0.813499 2.77304 0.816086 2.67061C0.821137 2.49123 0.831008 2.28173 0.867052 2.08468C0.893264 1.9286 0.943266 1.77733 1.01536 1.63601C1.08515 1.50056 1.17606 1.3769 1.28626 1.26841C1.39548 1.16049 1.52131 1.07029 1.6591 1.00115C1.80232 0.930167 1.95556 0.880844 2.11366 0.854842C2.31225 0.819736 2.52507 0.809997 2.70735 0.805014C2.81112 0.802296 2.91512 0.801164 3.0182 0.800484L3.4032 0.799805H34.5971Z" fill="white"/>
<path d="M9.9884 8.10171C10.3107 7.70422 10.5293 7.17039 10.4717 6.625C10.0001 6.6481 9.42479 6.93189 9.09144 7.32984C8.7923 7.67048 8.5276 8.22651 8.59647 8.74902C9.12588 8.79432 9.65482 8.48811 9.9884 8.10171Z" fill="black"/>
<path d="M10.4659 8.85119C9.69683 8.80589 9.04345 9.28152 8.67635 9.28152C8.30903 9.28152 7.74679 8.87384 7.13864 8.88493C6.34728 8.89626 5.61309 9.33791 5.21133 10.04C4.38531 11.4443 4.99323 13.528 5.79676 14.6718C6.18681 15.238 6.65698 15.8608 7.27639 15.8384C7.86181 15.8158 8.09116 15.4647 8.80239 15.4647C9.5134 15.4647 9.72002 15.8384 10.3396 15.8271C10.982 15.8158 11.3838 15.2608 11.7738 14.6946C12.2215 14.0491 12.4045 13.4263 12.416 13.3923C12.4045 13.381 11.1771 12.9165 11.1657 11.5235C11.1542 10.3571 12.1294 9.80222 12.1754 9.76802C11.6246 8.96443 10.7641 8.87384 10.4657 8.85119" fill="black"/>
<path d="M18.1307 7.27295C19.8015 7.27295 20.9653 8.40925 20.9653 10.0635C20.9653 11.7237 19.7777 12.8659 18.0889 12.8659H16.2389V15.7686H14.9023V7.27295H18.1307ZM16.2389 11.759H17.7725C18.9365 11.759 19.5986 11.1409 19.5986 10.0694C19.5986 8.99812 18.9363 8.38569 17.7785 8.38569H16.2389V11.759Z" fill="black"/>
<path d="M21.2969 14.008C21.2969 12.9188 22.1383 12.2949 23.6898 12.2006L25.3547 12.1005V11.6294C25.3547 10.9409 24.8953 10.564 24.0778 10.564C23.4033 10.564 22.9138 10.9053 22.8128 11.4292H21.607C21.6431 10.3285 22.6932 9.52783 24.1136 9.52783C25.6412 9.52783 26.6378 10.3167 26.6378 11.5413V15.7683H25.4027V14.7498H25.3728C25.0206 15.415 24.2447 15.8329 23.4033 15.8329C22.1622 15.8329 21.2969 15.1031 21.2969 14.008ZM25.3547 13.4606V12.9836L23.8688 13.0778C23.0332 13.1308 22.5979 13.4368 22.5979 13.9725C22.5979 14.4907 23.0513 14.8263 23.7614 14.8263C24.6682 14.8263 25.3547 14.2551 25.3547 13.4606Z" fill="black"/>
<path d="M27.7736 18.0408V17.0225C27.8572 17.034 28.0599 17.0458 28.1673 17.0458C28.758 17.0458 29.0923 16.7989 29.2953 16.1627L29.4146 15.7861L27.1528 9.60449H28.5491L30.1247 14.6203H30.1546L31.7299 9.60449H33.0906L30.7453 16.098C30.2081 17.5876 29.5935 18.0763 28.2927 18.0763C28.1912 18.0763 27.8629 18.0646 27.7736 18.0408Z" fill="black"/>
</g>
<defs>
<clipPath id="clip0_229_1008">
<rect width="38" height="24" fill="white"/>
</clipPath>
</defs>
</svg>
