<svg width="38" height="24" viewBox="0 0 38 24" fill="none" xmlns="http://www.w3.org/2000/svg">
<g clip-path="url(#clip0_229_1019)">
<path opacity="0.07" d="M35 0H3C1.3 0 0 1.3 0 3V21C0 22.7 1.4 24 3 24H35C36.7 24 38 22.7 38 21V3C38 1.3 36.6 0 35 0Z" fill="black"/>
<path d="M35 1C36.1 1 37 1.9 37 3V21C37 22.1 36.1 23 35 23H3C1.9 23 1 22.1 1 21V3C1 1.9 1.9 1 3 1H35Z" fill="white"/>
<path d="M18.0932 11.9762V15.1762H17.0752V7.27623H19.7662C20.0886 7.27077 20.409 7.3291 20.7088 7.44786C21.0086 7.56661 21.282 7.74346 21.5132 7.96823C21.7322 8.17262 21.9088 8.41818 22.0329 8.69087C22.157 8.96355 22.2261 9.25802 22.2363 9.55743C22.2466 9.85685 22.1977 10.1553 22.0925 10.4358C21.9872 10.7164 21.8278 10.9734 21.6232 11.1922L21.5132 11.3082C21.0432 11.7552 20.4152 11.9982 19.7662 11.9822L18.0932 11.9762ZM18.0932 8.24423V11.0322H19.7912C20.1682 11.0442 20.5322 10.8972 20.7962 10.6282C20.985 10.4314 21.1118 10.1834 21.1608 9.91506C21.2098 9.64673 21.1788 9.36992 21.0717 9.11906C20.9646 8.8682 20.7861 8.65436 20.5585 8.50415C20.3308 8.35394 20.064 8.27398 19.7912 8.27423L18.0932 8.24423ZM24.5772 9.59223C25.2272 9.56223 25.8632 9.78023 26.3552 10.2052C26.8002 10.6352 27.0372 11.2352 27.0052 11.8542V15.1882H26.0362V14.4222H25.9872C25.8134 14.7095 25.5677 14.9465 25.2743 15.1098C24.9809 15.2731 24.6499 15.357 24.3142 15.3532C23.7661 15.371 23.2316 15.1805 22.8182 14.8202C22.6223 14.6605 22.4654 14.4582 22.3592 14.2289C22.253 13.9995 22.2003 13.749 22.2052 13.4962C22.1937 13.2408 22.2433 12.9864 22.3499 12.754C22.4565 12.5216 22.6171 12.318 22.8182 12.1602C23.3116 11.8054 23.9088 11.6243 24.5162 11.6452C25.0332 11.6252 25.5462 11.7382 26.0062 11.9762V11.7682C26.0096 11.5963 25.9738 11.4258 25.9015 11.2697C25.8293 11.1136 25.7225 10.976 25.5892 10.8672C25.3215 10.6239 24.9709 10.4922 24.6092 10.4992C24.3465 10.4968 24.0875 10.5613 23.8568 10.6868C23.626 10.8122 23.431 10.9944 23.2902 11.2162L22.3952 10.6522C22.6382 10.304 22.9663 10.0238 23.3483 9.83828C23.7302 9.65274 24.1533 9.56803 24.5772 9.59223ZM23.2902 13.5202C23.2878 13.6497 23.3173 13.7779 23.376 13.8933C23.4348 14.0088 23.5211 14.108 23.6272 14.1822C23.8502 14.3582 24.1272 14.4512 24.4122 14.4452C24.8412 14.4442 25.2522 14.2752 25.5582 13.9732C25.8632 13.6872 26.0362 13.2882 26.0362 12.8702C25.6512 12.5965 25.1835 12.4644 24.7122 12.4962C24.3463 12.4818 23.9854 12.5848 23.6822 12.7902C23.5621 12.8706 23.4636 12.9791 23.3953 13.1064C23.3269 13.2337 23.2908 13.3758 23.2902 13.5202ZM32.5762 9.77023L29.1862 17.5602H28.1382L29.4192 14.8322L27.1952 9.77023H28.2982L29.9102 13.6552L31.4792 9.77023H32.5762Z" fill="#5F6368"/>
<path d="M13.986 11.2838C13.986 10.9758 13.962 10.6678 13.913 10.3638H9.62305V12.1108H12.074C12.0241 12.3884 11.9187 12.6531 11.7641 12.889C11.6094 13.125 11.4087 13.3273 11.174 13.4838V14.6178H12.638C13.0832 14.1871 13.4331 13.6678 13.6653 13.0936C13.8975 12.5194 14.0067 11.9028 13.986 11.2838Z" fill="#4285F4"/>
<path d="M9.62915 15.7209C10.7355 15.7513 11.8118 15.359 12.6391 14.6239L11.1731 13.4839C10.8209 13.7098 10.4218 13.8523 10.0062 13.9008C9.59055 13.9492 9.16936 13.9022 8.77463 13.7633C8.3799 13.6245 8.02204 13.3975 7.72824 13.0995C7.43444 12.8016 7.21245 12.4406 7.07915 12.0439H5.57715V13.2139C5.953 13.967 6.5312 14.6004 7.2469 15.0432C7.96261 15.486 8.78753 15.7207 9.62915 15.7209Z" fill="#34A853"/>
<path d="M7.07893 12.05C6.88872 11.4873 6.88872 10.8777 7.07893 10.315V9.14502H5.57693C5.25672 9.77647 5.08984 10.4745 5.08984 11.1825C5.08984 11.8905 5.25672 12.5886 5.57693 13.22L7.07893 12.05Z" fill="#FBBC04"/>
<path d="M9.62915 8.44019C10.2762 8.42837 10.9016 8.6728 11.3691 9.12019L12.6691 7.82719C11.8402 7.0492 10.7408 6.62485 9.60415 6.64419C8.76752 6.64838 7.94839 6.88419 7.23758 7.32547C6.52677 7.76674 5.95206 8.39625 5.57715 9.14419L7.07915 10.3152C7.25477 9.77527 7.59524 9.304 8.05266 8.96766C8.51007 8.63132 9.06142 8.44685 9.62915 8.44019Z" fill="#EA4335"/>
</g>
<defs>
<clipPath id="clip0_229_1019">
<rect width="38" height="24" fill="white"/>
</clipPath>
</defs>
</svg>
